<mxfile host="app.diagrams.net" modified="2021-12-10T07:14:10.019Z" agent="5.0 (Windows NT 10.0; Win64; x64) AppleWebKit/537.36 (KHTML, like Gecko) Chrome/96.0.4664.93 Safari/537.36" etag="P8rst7tdtMPQAMSwCslY" version="15.7.3" type="github">
  <diagram id="KKh_jsHTw_H1uoXRT0Hb" name="Page-1">
    <mxGraphModel dx="780" dy="1051" grid="1" gridSize="10" guides="1" tooltips="1" connect="1" arrows="1" fold="1" page="1" pageScale="1" pageWidth="850" pageHeight="1100" math="0" shadow="0">
      <root>
        <mxCell id="0" />
        <mxCell id="1" parent="0" />
        <mxCell id="R-kmTrfRd0BEjXpYQg51-2" value="User" style="shape=umlActor;verticalLabelPosition=bottom;verticalAlign=top;html=1;outlineConnect=0;" parent="1" vertex="1">
          <mxGeometry x="90" y="220" width="30" height="60" as="geometry" />
        </mxCell>
        <mxCell id="R-kmTrfRd0BEjXpYQg51-3" value="" style="endArrow=classic;html=1;rounded=0;" parent="1" edge="1">
          <mxGeometry width="50" height="50" relative="1" as="geometry">
            <mxPoint x="140" y="230" as="sourcePoint" />
            <mxPoint x="270" y="230" as="targetPoint" />
          </mxGeometry>
        </mxCell>
        <mxCell id="R-kmTrfRd0BEjXpYQg51-6" value="&lt;b&gt;&lt;font style=&quot;font-size: 16px&quot;&gt;Typing&lt;/font&gt;&lt;/b&gt;" style="rounded=1;whiteSpace=wrap;html=1;fontFamily=Times New Roman;align=center;" parent="1" vertex="1">
          <mxGeometry x="280" y="220" width="110" height="30" as="geometry" />
        </mxCell>
        <mxCell id="R-kmTrfRd0BEjXpYQg51-7" value="" style="endArrow=classic;html=1;rounded=0;" parent="1" edge="1">
          <mxGeometry width="50" height="50" relative="1" as="geometry">
            <mxPoint x="140" y="230" as="sourcePoint" />
            <mxPoint x="270" y="280" as="targetPoint" />
          </mxGeometry>
        </mxCell>
        <mxCell id="R-kmTrfRd0BEjXpYQg51-8" value="&lt;b&gt;&lt;font style=&quot;font-size: 16px&quot;&gt;Talking&lt;/font&gt;&lt;/b&gt;" style="rounded=1;whiteSpace=wrap;html=1;fontFamily=Times New Roman;align=center;" parent="1" vertex="1">
          <mxGeometry x="280" y="270" width="110" height="30" as="geometry" />
        </mxCell>
        <mxCell id="R-kmTrfRd0BEjXpYQg51-9" value="" style="endArrow=classic;html=1;rounded=0;" parent="1" edge="1">
          <mxGeometry width="50" height="50" relative="1" as="geometry">
            <mxPoint x="140" y="230" as="sourcePoint" />
            <mxPoint x="270" y="330" as="targetPoint" />
          </mxGeometry>
        </mxCell>
        <mxCell id="R-kmTrfRd0BEjXpYQg51-10" value="&lt;b&gt;&lt;font style=&quot;font-size: 16px&quot;&gt;Read Task&lt;/font&gt;&lt;/b&gt;" style="rounded=1;whiteSpace=wrap;html=1;fontFamily=Times New Roman;align=center;" parent="1" vertex="1">
          <mxGeometry x="280" y="320" width="110" height="30" as="geometry" />
        </mxCell>
        <mxCell id="R-kmTrfRd0BEjXpYQg51-11" value="" style="endArrow=classic;html=1;rounded=0;" parent="1" edge="1">
          <mxGeometry width="50" height="50" relative="1" as="geometry">
            <mxPoint x="140" y="230" as="sourcePoint" />
            <mxPoint x="270" y="380" as="targetPoint" />
          </mxGeometry>
        </mxCell>
        <mxCell id="R-kmTrfRd0BEjXpYQg51-12" value="&lt;span style=&quot;font-size: 16px&quot;&gt;&lt;b&gt;Request Report&lt;/b&gt;&lt;/span&gt;" style="rounded=1;whiteSpace=wrap;html=1;fontFamily=Times New Roman;align=center;" parent="1" vertex="1">
          <mxGeometry x="280" y="370" width="110" height="30" as="geometry" />
        </mxCell>
        <mxCell id="R-kmTrfRd0BEjXpYQg51-13" value="" style="endArrow=classic;html=1;rounded=0;" parent="1" edge="1">
          <mxGeometry width="50" height="50" relative="1" as="geometry">
            <mxPoint x="410" y="234.5" as="sourcePoint" />
            <mxPoint x="500" y="260" as="targetPoint" />
          </mxGeometry>
        </mxCell>
        <mxCell id="R-kmTrfRd0BEjXpYQg51-14" value="" style="endArrow=classic;html=1;rounded=0;" parent="1" edge="1">
          <mxGeometry width="50" height="50" relative="1" as="geometry">
            <mxPoint x="410" y="294.5" as="sourcePoint" />
            <mxPoint x="500" y="270" as="targetPoint" />
          </mxGeometry>
        </mxCell>
        <mxCell id="R-kmTrfRd0BEjXpYQg51-15" value="&lt;b&gt;&lt;font style=&quot;font-size: 16px&quot;&gt;Form&lt;/font&gt;&lt;/b&gt;" style="rounded=1;whiteSpace=wrap;html=1;fontFamily=Times New Roman;align=center;" parent="1" vertex="1">
          <mxGeometry x="510" y="250" width="110" height="30" as="geometry" />
        </mxCell>
        <mxCell id="R-kmTrfRd0BEjXpYQg51-16" value="" style="endArrow=classic;html=1;rounded=0;" parent="1" edge="1">
          <mxGeometry width="50" height="50" relative="1" as="geometry">
            <mxPoint x="630" y="260" as="sourcePoint" />
            <mxPoint x="710" y="230" as="targetPoint" />
          </mxGeometry>
        </mxCell>
        <mxCell id="R-kmTrfRd0BEjXpYQg51-17" value="" style="endArrow=classic;html=1;rounded=0;" parent="1" edge="1">
          <mxGeometry width="50" height="50" relative="1" as="geometry">
            <mxPoint x="630" y="384.40999999999997" as="sourcePoint" />
            <mxPoint x="710" y="384.40999999999997" as="targetPoint" />
          </mxGeometry>
        </mxCell>
        <mxCell id="R-kmTrfRd0BEjXpYQg51-18" value="" style="endArrow=classic;html=1;rounded=0;" parent="1" edge="1">
          <mxGeometry width="50" height="50" relative="1" as="geometry">
            <mxPoint x="630" y="280" as="sourcePoint" />
            <mxPoint x="710" y="310" as="targetPoint" />
          </mxGeometry>
        </mxCell>
        <mxCell id="R-kmTrfRd0BEjXpYQg51-19" value="&lt;b&gt;&lt;font style=&quot;font-size: 16px&quot;&gt;Add Task&lt;/font&gt;&lt;/b&gt;" style="rounded=1;whiteSpace=wrap;html=1;fontFamily=Times New Roman;align=center;" parent="1" vertex="1">
          <mxGeometry x="720" y="220" width="110" height="30" as="geometry" />
        </mxCell>
        <mxCell id="R-kmTrfRd0BEjXpYQg51-20" value="&lt;b&gt;&lt;font style=&quot;font-size: 16px&quot;&gt;Update Task&lt;/font&gt;&lt;/b&gt;" style="rounded=1;whiteSpace=wrap;html=1;fontFamily=Times New Roman;align=center;" parent="1" vertex="1">
          <mxGeometry x="720" y="260" width="110" height="30" as="geometry" />
        </mxCell>
        <mxCell id="R-kmTrfRd0BEjXpYQg51-21" value="&lt;b&gt;&lt;font style=&quot;font-size: 16px&quot;&gt;Delete Task&lt;/font&gt;&lt;/b&gt;" style="rounded=1;whiteSpace=wrap;html=1;fontFamily=Times New Roman;align=center;" parent="1" vertex="1">
          <mxGeometry x="720" y="300" width="110" height="30" as="geometry" />
        </mxCell>
        <mxCell id="R-kmTrfRd0BEjXpYQg51-22" value="Modal&lt;br&gt;" style="shape=umlActor;verticalLabelPosition=bottom;verticalAlign=top;html=1;outlineConnect=0;" parent="1" vertex="1">
          <mxGeometry x="100" y="640" width="30" height="60" as="geometry" />
        </mxCell>
        <mxCell id="R-kmTrfRd0BEjXpYQg51-23" value="" style="endArrow=classic;html=1;rounded=0;" parent="1" edge="1">
          <mxGeometry width="50" height="50" relative="1" as="geometry">
            <mxPoint x="410" y="384.40999999999974" as="sourcePoint" />
            <mxPoint x="490" y="384.40999999999974" as="targetPoint" />
          </mxGeometry>
        </mxCell>
        <mxCell id="R-kmTrfRd0BEjXpYQg51-24" value="&lt;b&gt;&lt;font style=&quot;font-size: 16px&quot;&gt;React-Chartjs-2&lt;/font&gt;&lt;/b&gt;" style="rounded=1;whiteSpace=wrap;html=1;fontFamily=Times New Roman;align=center;" parent="1" vertex="1">
          <mxGeometry x="500" y="370" width="120" height="30" as="geometry" />
        </mxCell>
        <mxCell id="R-kmTrfRd0BEjXpYQg51-26" value="&lt;b&gt;&lt;font style=&quot;font-size: 16px&quot;&gt;Get the amount of time spent on each task&lt;/font&gt;&lt;/b&gt;" style="rounded=1;whiteSpace=wrap;html=1;fontFamily=Times New Roman;align=center;" parent="1" vertex="1">
          <mxGeometry x="720" y="355" width="220" height="60" as="geometry" />
        </mxCell>
        <mxCell id="R-kmTrfRd0BEjXpYQg51-27" value="" style="endArrow=classic;html=1;rounded=0;" parent="1" edge="1">
          <mxGeometry width="50" height="50" relative="1" as="geometry">
            <mxPoint x="630" y="390" as="sourcePoint" />
            <mxPoint x="710" y="460" as="targetPoint" />
          </mxGeometry>
        </mxCell>
        <mxCell id="R-kmTrfRd0BEjXpYQg51-28" value="&lt;b&gt;&lt;font style=&quot;font-size: 16px&quot;&gt;Visualize the percentage of time spent on each task category via Pie and Bar Charts&lt;/font&gt;&lt;/b&gt;" style="rounded=1;whiteSpace=wrap;html=1;fontFamily=Times New Roman;align=center;" parent="1" vertex="1">
          <mxGeometry x="720" y="430" width="220" height="70" as="geometry" />
        </mxCell>
        <mxCell id="R-kmTrfRd0BEjXpYQg51-31" value="" style="endArrow=classic;html=1;rounded=0;" parent="1" edge="1">
          <mxGeometry width="50" height="50" relative="1" as="geometry">
            <mxPoint x="150" y="660" as="sourcePoint" />
            <mxPoint x="280" y="660" as="targetPoint" />
          </mxGeometry>
        </mxCell>
        <mxCell id="R-kmTrfRd0BEjXpYQg51-32" value="&lt;b&gt;&lt;font style=&quot;font-size: 16px&quot;&gt;Send notification when users make change on each tasks without sign in&amp;nbsp;&lt;/font&gt;&lt;/b&gt;" style="rounded=1;whiteSpace=wrap;html=1;fontFamily=Times New Roman;align=center;" parent="1" vertex="1">
          <mxGeometry x="280" y="620" width="310" height="55" as="geometry" />
        </mxCell>
        <mxCell id="R-kmTrfRd0BEjXpYQg51-33" value="&lt;b&gt;&lt;font style=&quot;font-size: 16px&quot;&gt;Send notification when users delete tasks&lt;/font&gt;&lt;/b&gt;" style="rounded=1;whiteSpace=wrap;html=1;fontFamily=Times New Roman;align=center;" parent="1" vertex="1">
          <mxGeometry x="280" y="750" width="310" height="30" as="geometry" />
        </mxCell>
        <mxCell id="R-kmTrfRd0BEjXpYQg51-34" value="" style="endArrow=classic;html=1;rounded=0;" parent="1" edge="1">
          <mxGeometry width="50" height="50" relative="1" as="geometry">
            <mxPoint x="150" y="660" as="sourcePoint" />
            <mxPoint x="280" y="740" as="targetPoint" />
          </mxGeometry>
        </mxCell>
        <mxCell id="OV-HQyQah6CXRXgrh819-1" value="&lt;b&gt;&lt;font style=&quot;font-size: 16px&quot;&gt;Weekly and Daily reports&amp;nbsp;&lt;/font&gt;&lt;/b&gt;" style="rounded=1;whiteSpace=wrap;html=1;fontFamily=Times New Roman;align=center;" vertex="1" parent="1">
          <mxGeometry x="720" y="520" width="220" height="70" as="geometry" />
        </mxCell>
        <mxCell id="OV-HQyQah6CXRXgrh819-2" value="" style="endArrow=classic;html=1;rounded=0;" edge="1" parent="1">
          <mxGeometry width="50" height="50" relative="1" as="geometry">
            <mxPoint x="630" y="410" as="sourcePoint" />
            <mxPoint x="710" y="560" as="targetPoint" />
          </mxGeometry>
        </mxCell>
        <mxCell id="OV-HQyQah6CXRXgrh819-3" value="&lt;b&gt;&lt;font style=&quot;font-size: 16px&quot;&gt;Send User to Authentication Page&lt;/font&gt;&lt;/b&gt;" style="rounded=1;whiteSpace=wrap;html=1;fontFamily=Times New Roman;align=center;" vertex="1" parent="1">
          <mxGeometry x="720" y="622.5" width="220" height="52.5" as="geometry" />
        </mxCell>
        <mxCell id="OV-HQyQah6CXRXgrh819-4" value="" style="endArrow=classic;html=1;rounded=0;" edge="1" parent="1">
          <mxGeometry width="50" height="50" relative="1" as="geometry">
            <mxPoint x="590" y="647" as="sourcePoint" />
            <mxPoint x="720" y="647" as="targetPoint" />
          </mxGeometry>
        </mxCell>
      </root>
    </mxGraphModel>
  </diagram>
</mxfile>
